<svg width="112" height="113" viewBox="0 0 112 113" fill="none" xmlns="http://www.w3.org/2000/svg">
<path d="M69.1216 64.614L55.81 73.8987L42.4962 64.614V70.7702L55.8057 80.0507L55.81 80.0465L55.8142 80.0507L69.1216 70.7681V64.614Z" fill="white"/>
<path d="M69.1216 62.5681V48.004V34.0286L60.2556 40.3361V57.972L55.81 61.0732L51.3622 57.972V40.3361L42.4962 34.0286V48.004V62.5702L55.8057 71.8507L55.81 71.8465L55.8142 71.8507L69.1216 62.5681Z" fill="white"/>
<path d="M57.0619 34.0622L55.8101 30.3071L54.5541 34.0622H50.5327L53.7772 36.4906L52.5466 40.3046L55.8101 37.9582L59.0673 40.3046L57.8387 36.4906L61.0874 34.0622H57.0619Z" fill="white"/>
<path d="M9.30573 40.3049C9.17132 40.716 8.97367 41.0559 8.72068 41.3327C8.46768 41.6094 8.16725 41.8228 7.81939 41.9572C7.47152 42.0916 7.06831 42.1628 6.62557 42.147C6.17493 42.1391 5.69266 42.0442 5.16296 41.8624C4.63325 41.6884 4.19051 41.4671 3.83474 41.2062C3.47897 40.9453 3.19435 40.6527 2.9967 40.3286C2.79905 40.0044 2.68046 39.6566 2.65674 39.285C2.63302 38.9134 2.68046 38.5181 2.81486 38.1149C2.94926 37.7117 3.14691 37.3717 3.392 37.0871C3.64499 36.8025 3.94542 36.5969 4.3012 36.4546C4.65697 36.3202 5.05227 36.2491 5.49501 36.2649C5.93775 36.2728 6.42792 36.3677 6.94972 36.5416C7.47943 36.7155 7.92217 36.9369 8.28584 37.1978C8.64952 37.4587 8.92624 37.7512 9.12389 38.0754C9.32154 38.3995 9.43222 38.7474 9.46385 39.1269C9.49547 39.5064 9.44013 39.8938 9.30573 40.297V40.3049ZM8.64162 40.0835C8.72858 39.8147 8.76811 39.5459 8.7523 39.285C8.73649 39.0241 8.65743 38.779 8.53884 38.5576C8.41234 38.3284 8.23841 38.1307 8.01704 37.9568C7.79567 37.7828 7.52686 37.6405 7.21062 37.5377L6.16702 37.182C5.85078 37.0792 5.55826 37.0239 5.27364 37.0318C4.98902 37.0318 4.72812 37.095 4.49885 37.1978C4.26167 37.3006 4.05611 37.4508 3.88218 37.6484C3.70824 37.8461 3.57384 38.0754 3.48687 38.3442C3.392 38.613 3.36038 38.8818 3.37619 39.1427C3.392 39.4036 3.47106 39.6487 3.58965 39.87C3.71615 40.0993 3.89008 40.297 4.11145 40.4709C4.33282 40.6448 4.60163 40.7871 4.91787 40.8899L5.96147 41.2457C6.27771 41.3485 6.57023 41.4038 6.85485 41.3959C7.13947 41.3959 7.40037 41.3327 7.62964 41.2299C7.86682 41.1271 8.07238 40.9769 8.24632 40.7792C8.42025 40.5816 8.55465 40.3523 8.64162 40.0835Z" fill="white"/>
<path d="M12.1043 33.3241L6.34082 30.0668L8.2778 26.6277L8.88657 26.9756L7.33698 29.719L9.27397 30.81L10.6891 28.3038L11.2979 28.6516L9.88273 31.1579L12.4917 32.6284L12.0964 33.3241H12.1043Z" fill="white"/>
<path d="M16.7051 26.0665L11.5977 21.8525L14.1672 18.7375L14.7127 19.1803L12.6493 21.6865L14.3649 23.1017L16.3098 20.7457L16.8474 21.1884L14.9025 23.5444L16.6734 25.0071L18.7369 22.5008L19.2824 22.9515L16.713 26.0665H16.7051Z" fill="white"/>
<path d="M21.2985 15.4009L19.7489 14.7764L19.7252 14.7922L23.2434 19.0377L22.6425 19.5358L18.4207 14.4364L19.1323 13.8514L23.5755 15.4247L25.125 16.0492L25.1488 16.0334L21.6306 11.7879L22.2314 11.2898L26.4533 16.3892L25.7417 16.9742L21.2985 15.4009Z" fill="white"/>
<path d="M32.3598 12.7919C31.8854 13.0528 31.4348 13.1793 31.0078 13.1793C30.5809 13.1793 30.154 13.0845 29.7508 12.9026L30.0275 12.1911C30.3832 12.3492 30.7232 12.4362 31.0474 12.4362C31.3715 12.4362 31.7036 12.3492 32.0435 12.1674C32.4625 11.9381 32.7234 11.6693 32.8341 11.3451C32.9448 11.0289 32.9053 10.6968 32.7234 10.3648C32.5732 10.0881 32.3677 9.92204 32.1226 9.8588C31.8775 9.80345 31.5375 9.83508 31.1027 9.95367L30.573 10.1039C29.9721 10.2699 29.4661 10.3094 29.055 10.2225C28.636 10.1276 28.3119 9.8588 28.0589 9.40815C27.9166 9.15516 27.8375 8.90216 27.8296 8.64917C27.8217 8.39618 27.8533 8.15899 27.9482 7.92972C28.0431 7.70044 28.1933 7.49489 28.3909 7.28933C28.5886 7.09168 28.8258 6.91774 29.1104 6.75962C29.5452 6.52244 29.9642 6.39594 30.3674 6.38013C30.7706 6.37223 31.1659 6.45919 31.5533 6.64894L31.2371 7.32095C30.9525 7.18655 30.6679 7.1233 30.3674 7.1154C30.067 7.1154 29.7508 7.20236 29.4108 7.39211C29.0392 7.59767 28.7862 7.83485 28.6597 8.11156C28.5332 8.38827 28.5569 8.68079 28.7309 8.99704C28.8811 9.27375 29.0867 9.43187 29.3476 9.47931C29.6085 9.51884 29.9405 9.47931 30.3516 9.36862L30.8813 9.21841C31.5217 9.03657 32.0435 8.99704 32.4388 9.12353C32.8341 9.24212 33.1583 9.51884 33.3955 9.95367C33.5378 10.2225 33.6247 10.4834 33.6564 10.7522C33.6801 11.021 33.6564 11.274 33.5615 11.5191C33.4745 11.7642 33.3243 11.9934 33.1266 12.2148C32.929 12.4362 32.6681 12.6259 32.3598 12.7998V12.7919Z" fill="white"/>
<path d="M38.3447 9.87482L38.1233 9.25024L39.0009 8.94191L37.2378 3.95319L36.3603 4.26152L36.1389 3.63694L38.6451 2.75146L38.8665 3.37604L37.9889 3.68438L39.752 8.6731L40.6295 8.36476L40.8509 8.98934L38.3447 9.87482Z" fill="white"/>
<path d="M46.9543 7.46337L43.6416 1.32037L44.4797 1.17015L46.132 4.26932L47.2784 6.5937H47.3259L47.6342 4.00842L48.1402 0.52976L48.9545 0.387451L47.903 7.29734L46.9464 7.46337H46.9543Z" fill="white"/>
<path d="M58.2044 6.66481L57.5719 4.6962L54.8997 4.65667L54.2039 6.60156L53.3975 6.58575L55.8168 0L56.8287 0.0158121L59.0345 6.67271L58.1965 6.6569L58.2044 6.66481ZM56.3149 0.751076H56.2674L55.0973 3.96094L57.3822 4.00047L56.3149 0.758982V0.751076Z" fill="white"/>
<path d="M70.9571 1.96851L73.068 2.64843C73.4633 2.77492 73.7954 2.95676 74.0721 3.18604C74.3488 3.41531 74.5543 3.70784 74.6966 4.03989C74.839 4.37195 74.9101 4.75934 74.9022 5.19418C74.8943 5.62901 74.8073 6.10337 74.6413 6.63308C74.4753 7.15488 74.2618 7.59762 74.0167 7.95339C73.7716 8.30916 73.4949 8.57797 73.1787 8.77562C72.8703 8.96537 72.5304 9.07605 72.1746 9.10767C71.8109 9.1393 71.4394 9.09186 71.044 8.96537L68.9331 8.28544L70.9571 1.97641V1.96851ZM71.2654 8.28544C71.5263 8.3645 71.7793 8.40404 72.0244 8.38032C72.2695 8.36451 72.4988 8.29335 72.7043 8.17476C72.9178 8.05617 73.0996 7.89014 73.2656 7.67668C73.4317 7.46321 73.5661 7.19441 73.6609 6.88607L73.993 5.85829C74.0958 5.54204 74.1353 5.24952 74.1274 4.98071C74.1195 4.71191 74.0642 4.46682 73.9614 4.24545C73.8586 4.02408 73.7163 3.84224 73.5265 3.68412C73.3368 3.526 73.1154 3.40741 72.8545 3.32044L71.5026 2.88561L69.9135 7.85852L71.2654 8.29335V8.28544Z" fill="white"/>
<path d="M77.7013 11.5982L78.0097 11.0132L78.8319 11.4401L81.2828 6.74391L80.4605 6.31698L80.7689 5.73193L83.1249 6.96528L82.8165 7.55033L81.9943 7.1234L79.5434 11.8196L80.3657 12.2465L80.0573 12.8316L77.7013 11.5982Z" fill="white"/>
<path d="M88.1134 17.1561L88.0897 17.1403C87.8367 17.338 87.5204 17.417 87.1488 17.3854C86.7773 17.3538 86.382 17.1799 85.9787 16.8794C85.6546 16.6343 85.4095 16.3497 85.2277 16.0256C85.0458 15.7014 84.951 15.3536 84.9351 14.9741C84.9193 14.6025 84.9905 14.1993 85.1407 13.7802C85.2909 13.3612 85.536 12.9264 85.876 12.4837C86.208 12.0488 86.5638 11.701 86.9275 11.4401C87.2911 11.1792 87.6627 11.0131 88.0343 10.9341C88.4059 10.855 88.7775 10.8629 89.1412 10.9499C89.5127 11.0368 89.8606 11.2108 90.2006 11.4717C90.6749 11.8354 90.9833 12.2386 91.1414 12.6892C91.2995 13.1399 91.3311 13.6063 91.2363 14.0807L90.4773 14.0016C90.5722 13.63 90.5643 13.2664 90.4457 12.9264C90.3271 12.5864 90.1057 12.286 89.7737 12.033C89.5444 11.8591 89.2993 11.7326 89.0463 11.6693C88.7933 11.6061 88.5403 11.5982 88.2873 11.6456C88.0343 11.693 87.7892 11.7879 87.552 11.946C87.3149 12.0963 87.0935 12.3097 86.8958 12.5706L86.2396 13.4245C86.042 13.6854 85.8918 13.9542 85.8048 14.223C85.7178 14.4918 85.6862 14.7606 85.702 15.0136C85.7258 15.2745 85.8048 15.5196 85.9392 15.7568C86.0736 15.9939 86.2713 16.2074 86.5243 16.3972C86.7061 16.5316 86.8958 16.6422 87.0935 16.7213C87.2912 16.8004 87.4888 16.8399 87.6865 16.832C87.8841 16.8241 88.0738 16.7845 88.2478 16.6976C88.4296 16.6106 88.5956 16.4604 88.7459 16.2707L89.1491 15.7489L87.9869 14.8634L88.4138 14.302L90.1927 15.6619L88.1213 18.3658L87.5362 17.9151L88.1213 17.1561H88.1134Z" fill="white"/>
<path d="M91.4253 21.5281L91.9155 21.0774L92.548 21.7574L96.4378 18.1601L95.8053 17.4802L96.2955 17.0295L98.098 18.9823L97.6079 19.433L96.9754 18.7531L93.0856 22.3503L93.7181 23.0302L93.2279 23.4809L91.4253 21.5281Z" fill="white"/>
<path d="M102.344 25.7422L97.4184 29.0232L96.9757 28.3591L101.901 25.0781L100.731 23.3229L101.316 22.9355L104.091 27.102L103.506 27.4894L102.336 25.7343L102.344 25.7422Z" fill="white"/>
<path d="M102.059 37.9018L103.577 36.5024L102.494 34.0515L100.439 34.2334L100.114 33.4981L107.103 32.9368L107.515 33.8618L102.391 38.6528L102.051 37.886L102.059 37.9018ZM106.637 33.7116L106.621 33.672L103.222 33.9487L104.147 36.0438L106.645 33.7195L106.637 33.7116Z" fill="white"/>
<path d="M103.704 42.8903L110.139 41.325L110.329 42.0997L104.573 43.4991L105.238 46.2346L104.558 46.4006L103.704 42.8903Z" fill="white"/>
<path d="M107.593 50.0216L108.408 49.9504L108.637 52.4171L107.823 52.4883L107.593 50.0216Z" fill="white"/>
<path d="M106.084 62.0627V62.0311C105.783 61.9204 105.546 61.699 105.372 61.367C105.198 61.0349 105.127 60.6159 105.167 60.1099C105.198 59.7067 105.301 59.343 105.483 59.0189C105.665 58.6947 105.902 58.4259 106.202 58.2045C106.511 57.9911 106.882 57.833 107.317 57.7302C107.752 57.6274 108.25 57.6037 108.803 57.6511C109.349 57.6986 109.831 57.8013 110.25 57.9674C110.669 58.1334 111.009 58.3548 111.27 58.6236C111.539 58.8924 111.729 59.2086 111.855 59.5644C111.982 59.9202 112.021 60.3155 111.99 60.7345C111.942 61.3274 111.768 61.8097 111.476 62.1892C111.183 62.5687 110.812 62.8454 110.353 63.0193L110.005 62.3315C110.369 62.2129 110.669 62.0074 110.891 61.7227C111.12 61.4381 111.246 61.0903 111.278 60.6712C111.302 60.3787 111.278 60.1099 111.183 59.8648C111.096 59.6197 110.97 59.3984 110.796 59.2086C110.622 59.0189 110.401 58.8687 110.148 58.7501C109.887 58.6315 109.594 58.5603 109.27 58.5366L108.195 58.4496C107.863 58.4259 107.562 58.4496 107.286 58.5208C107.009 58.5919 106.772 58.7105 106.566 58.8687C106.361 59.0268 106.195 59.2244 106.076 59.4695C105.957 59.7146 105.878 59.9913 105.847 60.3076C105.831 60.5368 105.847 60.7503 105.886 60.9638C105.934 61.1772 106.005 61.3591 106.115 61.5251C106.226 61.6911 106.361 61.8255 106.534 61.9283C106.708 62.0311 106.914 62.0943 107.167 62.1101L107.823 62.1655L107.942 60.7108L108.645 60.7661L108.464 62.9956L105.072 62.7189L105.135 61.9836L106.092 62.0627H106.084Z" fill="white"/>
<path d="M103.949 68.2452L104.162 67.4783L110.534 69.2888L109.815 71.8266C109.657 72.3879 109.38 72.7753 108.977 73.0046C108.574 73.2339 108.084 73.2576 107.498 73.0916C107.032 72.9572 106.676 72.7437 106.439 72.4433C106.202 72.1428 106.091 71.7713 106.115 71.3206L102.889 71.9847L103.134 71.1151L106.265 70.5142L106.684 69.0279L103.949 68.2531V68.2452ZM106.842 70.9807C106.755 71.2811 106.771 71.542 106.882 71.7555C106.992 71.9689 107.198 72.1191 107.483 72.1982L107.957 72.3326C108.25 72.4117 108.495 72.3958 108.7 72.2693C108.906 72.1428 109.048 71.9373 109.135 71.629L109.641 69.858L107.34 69.2018L106.834 70.9727L106.842 70.9807Z" fill="white"/>
<path d="M99.9876 78.4045C100.185 78.025 100.422 77.7087 100.715 77.4715C101.007 77.2344 101.332 77.0683 101.695 76.9814C102.059 76.8944 102.462 76.8865 102.905 76.9656C103.348 77.0446 103.814 77.2027 104.312 77.4557C104.81 77.7087 105.213 77.9933 105.53 78.3017C105.846 78.61 106.083 78.9421 106.225 79.2899C106.368 79.6378 106.439 80.0015 106.415 80.3731C106.392 80.7447 106.281 81.1241 106.083 81.5115C105.893 81.891 105.648 82.1994 105.356 82.4445C105.063 82.6895 104.731 82.8477 104.368 82.9346C104.004 83.0216 103.593 83.0216 103.158 82.9504C102.723 82.8793 102.257 82.7133 101.759 82.4603C101.26 82.2073 100.857 81.9227 100.533 81.6143C100.209 81.306 99.9797 80.9739 99.8374 80.6261C99.6951 80.2782 99.6318 79.9145 99.6555 79.535C99.6793 79.1555 99.7899 78.784 99.9797 78.4045H99.9876ZM100.612 78.7207C100.486 78.9737 100.407 79.2346 100.391 79.4876C100.375 79.7485 100.407 80.0015 100.501 80.2387C100.588 80.4838 100.731 80.7051 100.928 80.9107C101.126 81.1162 101.363 81.2902 101.664 81.4404L102.644 81.9385C102.937 82.0887 103.229 82.1836 103.506 82.2152C103.782 82.2547 104.051 82.2389 104.296 82.1677C104.541 82.0966 104.771 81.978 104.968 81.812C105.166 81.6459 105.332 81.4325 105.459 81.1795C105.585 80.9265 105.664 80.6656 105.68 80.4047C105.696 80.1438 105.664 79.8908 105.569 79.6536C105.482 79.4085 105.34 79.1872 105.142 78.9816C104.945 78.776 104.7 78.6021 104.407 78.4519L103.427 77.9538C103.134 77.8036 102.842 77.7087 102.565 77.6771C102.288 77.6376 102.019 77.6534 101.774 77.7245C101.529 77.7957 101.3 77.9143 101.102 78.0803C100.905 78.2463 100.739 78.4598 100.612 78.7128V78.7207Z" fill="white"/>
<path d="M95.6944 85.6147L101.83 88.5874L101.292 89.2357L98.3825 87.7573L96.1213 86.603L96.1055 86.6188L97.6235 88.6744L99.5526 91.3466L98.9754 92.0503L96.0027 90.643L93.71 89.5441L93.6942 89.5678L95.2358 91.5759L97.2124 94.1849L96.6906 94.8174L92.6664 89.2911L93.2277 88.6111L96.3269 90.05L98.588 91.1253L98.6038 91.1095L97.1333 89.0776L95.1489 86.2947L95.7102 85.6147H95.6944Z" fill="white"/>
<path d="M90.1684 99.6003L86.4841 94.9673L87.1087 94.4692L90.7929 99.1022L92.4374 97.7898L92.8722 98.3353L88.9508 101.458L88.516 100.913L90.1604 99.6003H90.1684Z" fill="white"/>
<path d="M78.8708 103.261L81.8355 101.704L80.4441 99.0471L81.1477 98.6755L84.2232 104.542L83.5195 104.913L82.1597 102.328L79.1949 103.886L80.5548 106.471L79.8511 106.842L76.7757 100.976L77.4793 100.605L78.8708 103.261Z" fill="white"/>
<path d="M62.56 105.071L63.5482 106.882L66.181 106.423L66.5051 104.383L67.2957 104.249L66.1414 111.167L65.1374 111.341L61.7299 105.214L62.5521 105.071H62.56ZM65.5169 110.526H65.5643L66.1177 107.151L63.8645 107.538L65.5169 110.526Z" fill="white"/>
<path d="M55.4929 105.34C56.0305 105.348 56.4891 105.459 56.8607 105.672C57.2402 105.886 57.5564 106.17 57.8173 106.534L57.2244 107.016C56.9951 106.7 56.7421 106.463 56.4575 106.297C56.1729 106.131 55.8408 106.044 55.4534 106.036C54.979 106.036 54.6154 106.139 54.3624 106.36C54.1094 106.581 53.9829 106.882 53.975 107.261C53.975 107.578 54.0619 107.823 54.2517 107.997C54.4414 108.171 54.7498 108.313 55.1846 108.424L55.7222 108.558C56.331 108.708 56.7895 108.922 57.0979 109.214C57.4141 109.499 57.5643 109.902 57.5564 110.416C57.5564 110.708 57.4932 110.961 57.3825 111.191C57.2718 111.42 57.1216 111.602 56.9239 111.752C56.7263 111.902 56.497 112.013 56.2282 112.084C55.9594 112.155 55.659 112.195 55.3427 112.187C54.8446 112.179 54.4177 112.076 54.0619 111.894C53.7062 111.712 53.4136 111.428 53.1685 111.072L53.7694 110.645C53.9512 110.898 54.1647 111.104 54.4256 111.254C54.6865 111.404 55.0028 111.483 55.3901 111.491C55.8171 111.491 56.1491 111.412 56.3942 111.238C56.6393 111.064 56.7658 110.795 56.7737 110.432C56.7737 110.115 56.6788 109.878 56.4733 109.712C56.2677 109.546 55.9594 109.412 55.5483 109.309L55.0107 109.175C54.3624 109.017 53.8959 108.787 53.6113 108.487C53.3267 108.186 53.1844 107.791 53.1923 107.293C53.1923 106.993 53.2555 106.716 53.3583 106.471C53.469 106.226 53.6192 106.02 53.8168 105.854C54.0145 105.688 54.2596 105.554 54.5363 105.467C54.813 105.38 55.1372 105.332 55.4929 105.34Z" fill="white"/>
<path d="M39.087 102.518L39.1265 104.581L41.6723 105.396L42.8977 103.735L43.6646 103.981L39.4428 109.586L38.4782 109.278L38.2885 102.265L39.087 102.518ZM39.1819 108.724L39.2293 108.74L41.277 106.004L39.1028 105.309L39.1898 108.724H39.1819Z" fill="white"/>
<path d="M24.2317 97.7424L26.9592 99.6873L28.6986 97.2444L29.3469 97.7108L25.4966 103.095L24.8483 102.628L26.5481 100.249L23.8205 98.3038L22.1207 100.683L21.4724 100.217L25.3227 94.833L25.971 95.2995L24.2317 97.7424Z" fill="white"/>
<path d="M18.7136 88.4844L17.7491 90.3107L19.5833 92.2556L21.4649 91.4017L22.0184 91.9868L15.6145 94.8488L14.9187 94.1135L18.1523 87.8835L18.7215 88.4923L18.7136 88.4844ZM15.7963 93.9633L15.8279 93.9949L18.9429 92.5956L17.3775 90.9353L15.7963 93.9633Z" fill="white"/>
<path d="M14.3973 82.4523C14.8558 83.1559 14.9665 83.8674 14.7372 84.5711C14.508 85.2747 13.9308 85.9309 12.99 86.5318C12.0492 87.1326 11.2111 87.4014 10.4522 87.3303C9.69318 87.2591 9.09232 86.8717 8.63377 86.1602C8.33334 85.6937 8.18313 85.2352 8.19103 84.7766C8.19894 84.3181 8.34125 83.8833 8.61796 83.4642L9.28997 83.7963C9.07651 84.0967 8.95792 84.413 8.92629 84.7529C8.90258 85.0929 8.99745 85.4328 9.21882 85.7807C9.36903 86.0179 9.55878 86.2076 9.76434 86.3341C9.9778 86.4685 10.2071 86.5397 10.4601 86.5634C10.7131 86.5871 10.974 86.5634 11.2507 86.4764C11.5274 86.3974 11.812 86.263 12.0966 86.0811L12.9268 85.5435C13.5039 85.1719 13.8676 84.7529 14.0257 84.2706C14.1838 83.7963 14.1048 83.314 13.7885 82.8317C13.5592 82.476 13.2746 82.2388 12.9347 82.1123C12.5947 81.9937 12.2389 81.97 11.8673 82.057V81.3059C12.3654 81.2268 12.8398 81.2822 13.2746 81.4719C13.7095 81.6617 14.081 81.9858 14.3815 82.4523H14.3973Z" fill="white"/>
<path d="M7.33637 76.1275L8.65668 76.6098L10.7043 75.7797L11.0048 76.5149L4.86178 78.9974L4.56135 78.2622L7.82655 76.9418V76.9181L6.39555 76.4675L3.44659 75.5029L3.08292 74.5937L6.64064 75.8192L9.16267 71.9531L9.53425 72.8702L7.34428 76.1275H7.33637Z" fill="white"/>
<path d="M7.96913 67.7154L1.47826 69.0278L0.679749 65.0669L1.36758 64.9246L2.00797 68.1028L4.18213 67.6601L3.58127 64.6637L4.2691 64.5214L4.86996 67.5178L7.12318 67.0671L6.48279 63.8889L7.17062 63.7466L7.96913 67.7075V67.7154Z" fill="white"/>
<path d="M6.64929 58.1966L6.6651 58.9951L0.0398266 59.1058L0.000296354 56.4651C-0.0076097 55.8801 0.142605 55.4295 0.458847 55.0974C0.77509 54.7653 1.24155 54.5993 1.84241 54.5835C2.33258 54.5756 2.72788 54.6784 3.04413 54.8997C3.36037 55.1211 3.57383 55.4453 3.68452 55.8801L6.57813 54.3147L6.59394 55.216L3.77148 56.6944L3.7952 58.244L6.64138 58.1966H6.64929ZM3.09156 56.4098C3.09156 56.0936 2.99669 55.8485 2.83066 55.6824C2.66464 55.5085 2.42745 55.4295 2.12702 55.4295H1.63685C1.33642 55.4453 1.09924 55.5322 0.941117 55.7062C0.782996 55.8801 0.703935 56.1331 0.703935 56.4493L0.735559 58.2914L3.12319 58.2519L3.09156 56.4098Z" fill="white"/>
<path d="M4.53045 49.6105L3.72403 49.4919L4.08771 47.041L4.89413 47.1596L4.53045 49.6105Z" fill="white"/>
</svg>
