<svg width="352" height="30" viewBox="0 0 352 30" fill="none" xmlns="http://www.w3.org/2000/svg">
<path d="M0.12 29L13.44 0.999998H19.72L33 29H26L18.32 12.88C18.0533 12.2667 17.7867 11.6933 17.52 11.16C17.28 10.6267 17.0533 10.1067 16.84 9.6C16.6533 9.06667 16.4667 8.53333 16.28 8C16.0933 7.46667 15.92 6.93333 15.76 6.4L17.24 6.36C17.0533 6.94667 16.8667 7.52 16.68 8.08C16.4933 8.61333 16.28 9.14667 16.04 9.68C15.8 10.2133 15.56 10.7467 15.32 11.28C15.08 11.7867 14.84 12.3333 14.6 12.92L6.96 29H0.12ZM6.32 23.96L8.52 18.84H24.52L25.68 23.96H6.32ZM54.5281 29.24C51.6748 29.24 49.1815 28.68 47.0481 27.56C44.9148 26.44 43.2481 24.8933 42.0481 22.92C40.8748 20.92 40.2881 18.6533 40.2881 16.12V0.999998H47.1681V15.92C47.1681 17.3333 47.4748 18.6 48.0881 19.72C48.7281 20.8133 49.6081 21.6667 50.7281 22.28C51.8481 22.8933 53.1015 23.2 54.4881 23.2C55.9548 23.2 57.2481 22.8933 58.3681 22.28C59.5148 21.6667 60.4215 20.8133 61.0881 19.72C61.7548 18.6 62.0881 17.3333 62.0881 15.92V0.999998H68.7281V16.12C68.7281 18.6533 68.1281 20.92 66.9281 22.92C65.7548 24.8933 64.1015 26.44 61.9681 27.56C59.8348 28.68 57.3548 29.24 54.5281 29.24ZM88.5606 29V7H78.0006V0.999998H106.121V7H95.3606V29H88.5606ZM129.673 29.4C127.14 29.4 124.833 29.04 122.753 28.32C120.673 27.5733 118.873 26.5467 117.353 25.24C115.833 23.9333 114.647 22.4 113.793 20.64C112.967 18.88 112.553 16.96 112.553 14.88C112.553 12.8 112.967 10.88 113.793 9.12C114.647 7.36 115.833 5.82667 117.353 4.52C118.9 3.21333 120.7 2.2 122.753 1.48C124.833 0.733332 127.127 0.359999 129.633 0.359999C132.113 0.359999 134.393 0.733332 136.473 1.48C138.553 2.2 140.353 3.22667 141.873 4.56C143.393 5.86667 144.567 7.4 145.393 9.16C146.247 10.92 146.673 12.8267 146.673 14.88C146.673 16.9333 146.247 18.84 145.393 20.6C144.567 22.36 143.393 23.9067 141.873 25.24C140.353 26.5467 138.553 27.5733 136.473 28.32C134.393 29.04 132.127 29.4 129.673 29.4ZM129.633 23C131.1 23 132.46 22.8 133.713 22.4C134.967 21.9733 136.033 21.4 136.913 20.68C137.82 19.9333 138.513 19.0667 138.993 18.08C139.5 17.0933 139.753 16.0267 139.753 14.88C139.753 13.7333 139.5 12.6667 138.993 11.68C138.513 10.6933 137.82 9.84 136.913 9.12C136.033 8.37333 134.967 7.8 133.713 7.4C132.46 6.97333 131.1 6.76 129.633 6.76C128.167 6.76 126.807 6.97333 125.553 7.4C124.327 7.8 123.247 8.37333 122.313 9.12C121.407 9.84 120.713 10.6933 120.233 11.68C119.753 12.6667 119.513 13.7333 119.513 14.88C119.513 16.0267 119.753 17.0933 120.233 18.08C120.713 19.0667 121.407 19.9333 122.313 20.68C123.247 21.4 124.327 21.9733 125.553 22.4C126.807 22.8 128.167 23 129.633 23ZM157.208 29V0.999998H163.288L175.528 16.96H171.608L183.888 0.999998H189.888V29H183.288V19.96C183.288 17.72 183.341 15.6267 183.448 13.68C183.581 11.7333 183.794 9.76 184.088 7.76L184.768 9.96L174.848 22.2H172.208L162.248 9.92L163.008 7.76C163.328 9.73333 163.541 11.6933 163.648 13.64C163.754 15.56 163.808 17.6667 163.808 19.96V29H157.208ZM198.245 29L211.565 0.999998H217.845L231.125 29H224.125L216.445 12.88C216.178 12.2667 215.912 11.6933 215.645 11.16C215.405 10.6267 215.178 10.1067 214.965 9.6C214.778 9.06667 214.592 8.53333 214.405 8C214.218 7.46667 214.045 6.93333 213.885 6.4L215.365 6.36C215.178 6.94667 214.992 7.52 214.805 8.08C214.618 8.61333 214.405 9.14667 214.165 9.68C213.925 10.2133 213.685 10.7467 213.445 11.28C213.205 11.7867 212.965 12.3333 212.725 12.92L205.085 29H198.245ZM204.445 23.96L206.645 18.84H222.645L223.805 23.96H204.445Z" fill="#FAFAFA"/>
<path d="M239.114 29V0.999998H246.554L258.794 16.96H253.194L265.474 0.999998H272.834V29H264.514V22C264.514 19.76 264.568 17.6667 264.674 15.72C264.808 13.7733 265.021 11.8 265.314 9.8L266.194 12.44L257.274 23.12H254.634L245.634 12.32L246.634 9.8C246.954 11.7733 247.168 13.7333 247.274 15.68C247.381 17.6 247.434 19.7067 247.434 22V29H239.114ZM280.102 29L293.582 0.999998H300.902L314.342 29H305.662L298.782 14.84C298.462 14.1467 298.169 13.5333 297.902 13C297.662 12.44 297.449 11.9067 297.262 11.4C297.102 10.8933 296.942 10.4 296.782 9.92C296.622 9.41333 296.476 8.89333 296.342 8.36H297.982C297.849 8.92 297.689 9.46667 297.502 10C297.342 10.5067 297.156 11.0133 296.942 11.52C296.729 12.0267 296.502 12.5467 296.262 13.08C296.022 13.6133 295.756 14.2 295.462 14.84L288.622 29H280.102ZM286.622 25.16L289.222 19.28H305.342L306.702 25.16H286.622ZM341.215 29L330.615 16.36L317.255 0.999998H327.935L338.175 13.16L351.935 29H341.215ZM317.055 29L329.855 13.76L337.215 16.92L327.495 29H317.055ZM339.095 16L331.775 12.96L341.055 0.999998H351.495L339.095 16Z" fill="#1A73E8"/>
</svg>
